PathFileType  4	(X/Y/Z) C:\Users\antoi\Documents\MyRepositories\mobilecap\ResultsAnalysis
DataRate	CameraRate	NumFrames	NumMarkers	Units	OrigDataRate	OrigDataStartFrame	OrigNumFrames
100.0	100.0	4	51	mm	100.0	1156	1321
Frame#	Time	r_knee			r_shank_antsup			r_ankle			r_calc			r_5meta			r_toe			L_knee			L_shank_antsup			L_ankle			L_calc			L_5meta			L_toe			r_sh2			r_sh3			r_sh4			L_sh2			L_sh3			r_thigh1			r_thigh2			r_thigh3			r_thigh4			r_thigh5			L_thigh1			L_thigh2			L_thigh3			L_thigh4			r.ASIS			r.PSIS			L.ASIS			L.PSIS			C7			R_Shoulder			L_Shoulder			R_Sternum			L_Sternum			R_humerus			R_elbow_med			R_elbow_lat			R_forearm			R_wrist_radius			R_wrist_ulna			L_humerus			L_elbow_med			L_elbow_lat			L_forearm			L_wrist_radius			L_wrist_ulna			R_HJC			L_HJC			R_HJC_reg			L_HJC_reg			
		X1	Y1	Z1	X2	Y2	Z2	X3	Y3	Z3	X4	Y4	Z4	X5	Y5	Z5	X6	Y6	Z6	X7	Y7	Z7	X8	Y8	Z8	X9	Y9	Z9	X10	Y10	Z10	X11	Y11	Z11	X12	Y12	Z12	X13	Y13	Z13	X14	Y14	Z14	X15	Y15	Z15	X16	Y16	Z16	X17	Y17	Z17	X18	Y18	Z18	X19	Y19	Z19	X20	Y20	Z20	X21	Y21	Z21	X22	Y22	Z22	X23	Y23	Z23	X24	Y24	Z24	X25	Y25	Z25	X26	Y26	Z26	X27	Y27	Z27	X28	Y28	Z28	X29	Y29	Z29	X30	Y30	Z30	X31	Y31	Z31	X32	Y32	Z32	X33	Y33	Z33	X34	Y34	Z34	X35	Y35	Z35	X36	Y36	Z36	X37	Y37	Z37	X38	Y38	Z38	X39	Y39	Z39	X40	Y40	Z40	X41	Y41	Z41	X42	Y42	Z42	X43	Y43	Z43	X44	Y44	Z44	X45	Y45	Z45	X46	Y46	Z46	X47	Y47	Z47	X48	Y48	Z48	X49	Y49	Z49	X50	Y50	Z50	X51	Y51	Z51	

1156	11.55000000	-239.12432	477.86188	-436.33028	-205.28097	419.40864	-427.07971	-251.21392	84.13627	-430.54812	-303.66815	55.64764	-476.92144	-144.43624	41.48745	-400.43045	-104.54076	61.74701	-451.57023	-212.92950	476.68803	-743.18629	-171.73856	394.68898	-736.97848	-238.00184	93.56178	-761.36693	-292.30683	53.60587	-715.41174	-139.04553	44.00585	-799.52639	-84.91231	58.39850	-748.19980	-221.36277	307.66417	-415.11649	-281.24082	431.33192	-414.50983	-302.09107	316.57971	-409.56031	-249.53797	416.36349	-777.94181	-257.46710	294.81462	-795.02479	-204.01884	732.40048	-393.75351	-196.08501	619.61369	-406.14368	-257.26602	593.59477	-411.37266	-313.56950	725.58819	-420.38215	-299.68647	611.42243	-441.46595	-187.91631	757.73376	-786.43556	-172.75917	620.27618	-767.14972	-299.39641	747.66367	-778.68446	-284.53092	613.57783	-743.10781	-148.09632	929.49320	-475.97052	-352.96002	972.93328	-555.13320	-144.95129	932.05915	-697.94153	-350.04232	972.84052	-638.18938	-275.98120	1403.94317	-587.03761	-234.60592	1384.10447	-446.10252	-215.66371	1380.39982	-722.94639	-145.87478	1355.63189	-556.02124	-146.19269	1352.48581	-595.51395	-183.90815	1295.14591	-378.92478	-146.55628	1077.68647	-365.22114	-121.98558	1111.53636	-309.80816	-28.78600	1131.47165	-314.56438	106.87818	1116.49494	-350.23770	106.29668	1081.86619	-333.77357	-184.25850	1287.44805	-796.11898	-150.10097	1061.97136	-801.46491	-127.44818	1099.22846	-853.68534	-20.66550	1095.38076	-836.95653	94.13796	1080.34594	-787.73863	89.98756	1041.00590	-797.12541	-236.01261	847.85290	-486.16524	-230.29591	851.82533	-693.55581	-224.10995	867.36526	-508.99844	-218.96687	867.20153	-655.43308	
1157	11.56000000	-238.28657	477.93888	-435.88823	-204.38561	419.36244	-426.74777	-251.26390	84.00111	-430.47537	-303.75755	55.57380	-476.83470	-144.44712	41.43653	-400.33937	-104.53984	61.73672	-451.45956	-212.46710	476.93224	-743.26040	-171.54869	394.70021	-736.94284	-237.97266	93.59828	-761.39397	-292.27588	53.66568	-715.44850	-139.02004	43.99103	-799.61861	-84.87470	58.25035	-748.10427	-220.62812	307.52459	-415.02951	-280.10540	431.26794	-414.08742	-301.35980	316.45531	-409.13537	-249.32060	416.56650	-777.93944	-257.42179	294.92690	-794.98144	-202.70170	732.41555	-393.00912	-195.17259	619.66873	-405.31031	-256.29006	593.62500	-410.77458	-312.36959	725.74315	-419.60233	-298.76308	611.57475	-440.98111	-186.79071	757.98085	-786.34542	-171.98286	620.33453	-767.09051	-298.24085	748.05913	-778.63694	-283.71616	614.03458	-743.10988	-146.30962	929.50952	-475.53666	-351.40511	972.25647	-554.24349	-143.31375	932.51182	-697.71965	-348.72299	972.33121	-637.19436	-275.91749	1403.80342	-586.70940	-234.39788	1384.10356	-445.80045	-215.59894	1380.11087	-722.88479	-145.61742	1355.59585	-555.83978	-146.01641	1352.49429	-595.32644	-183.34142	1295.14829	-378.74444	-145.88704	1077.59466	-365.25346	-121.23894	1111.44701	-309.89689	-27.98795	1131.39096	-314.43810	107.61803	1116.26561	-350.09148	107.02601	1081.61306	-333.63150	-183.98249	1287.17149	-795.92384	-149.25705	1061.44368	-800.67340	-126.87035	1098.98204	-853.52384	-20.12199	1094.99011	-837.19823	94.92135	1080.04581	-788.42664	90.53860	1040.55187	-797.16052	-233.79974	847.50689	-485.77441	-228.49503	851.93904	-693.16674	-221.96278	867.08773	-508.50467	-217.22347	867.21998	-655.09527	
1158	11.57000000	-237.13670	477.88269	-435.39251	-203.12917	419.23826	-426.44890	-251.24824	83.90073	-430.36221	-303.80603	55.52922	-476.72505	-144.45872	41.41576	-400.25190	-104.52711	61.75111	-451.36145	-211.91582	477.03242	-743.27549	-171.23757	394.73101	-736.90023	-237.95185	93.64346	-761.42047	-292.25341	53.74143	-715.47228	-139.02046	43.97687	-799.64368	-84.87517	58.19220	-748.17132	-219.62310	307.47786	-414.76351	-278.53661	431.16267	-413.84759	-300.41998	316.29784	-408.75432	-248.93402	416.86475	-778.08295	-257.23911	295.11213	-794.95824	-201.33801	732.38743	-392.39638	-194.03236	619.79547	-404.44103	-255.07444	593.71104	-410.10665	-311.12803	725.83236	-418.66599	-297.57195	611.61939	-440.29017	-185.76574	758.17480	-786.11664	-171.06116	620.48833	-767.06898	-297.19540	748.42287	-778.41279	-282.86382	614.46738	-743.17725	-144.60367	929.49253	-475.27382	-349.88932	971.80867	-553.35168	-141.83532	932.98532	-697.41034	-347.46590	972.08787	-636.26804	-275.79793	1403.65616	-586.49131	-234.14241	1384.10036	-445.53352	-215.51725	1379.89289	-722.78831	-145.34065	1355.56102	-555.64753	-145.80326	1352.51178	-595.10736	-182.79707	1295.18461	-378.58616	-145.17606	1077.46569	-365.39344	-120.54757	1111.31245	-310.09500	-27.33775	1131.10041	-314.48649	108.30577	1115.99195	-350.08345	107.70407	1081.26831	-333.83572	-183.71983	1286.81103	-795.44903	-148.31333	1060.85724	-799.61102	-126.27942	1098.71110	-853.17516	-19.45029	1094.56750	-837.29886	95.69713	1079.76659	-788.96850	91.33782	1040.46717	-797.99286	-231.78826	847.24119	-485.45103	-226.91983	852.17803	-692.84249	-219.95888	866.92672	-508.14680	-215.67431	867.42017	-654.72291	
1159	11.58000000	-235.68217	477.78932	-434.81752	-201.69178	419.02538	-426.11214	-251.19403	83.85905	-430.24096	-303.72774	55.60174	-476.62627	-144.46691	41.36268	-400.18790	-104.53129	61.72155	-451.17769	-211.36321	477.06300	-743.16568	-170.85578	394.82105	-736.82276	-237.92044	93.70439	-761.44144	-292.26801	53.78994	-715.46229	-139.01989	43.97916	-799.65074	-84.86765	58.17653	-748.23576	-218.49886	307.41889	-414.27354	-276.87385	431.12574	-413.47767	-299.24552	316.42509	-408.24183	-248.52484	417.13040	-778.11868	-256.92194	295.34261	-794.95379	-199.80240	732.31703	-391.90289	-192.52919	619.85574	-403.80410	-253.55348	593.80810	-409.37482	-309.71304	725.87268	-417.61896	-296.12211	611.65648	-439.37194	-184.82173	758.32872	-785.84434	-170.16592	620.75691	-767.02719	-296.22814	748.72861	-777.91639	-282.03179	614.73648	-743.00384	-143.01795	929.58674	-475.01571	-348.43857	971.61963	-552.54309	-140.50085	933.82874	-696.94496	-346.31575	971.91787	-635.66003	-275.68666	1403.50697	-586.35656	-233.88515	1384.07836	-445.29398	-215.44852	1379.74245	-722.68338	-145.04986	1355.54311	-555.42212	-145.57026	1352.54318	-594.88519	-182.29720	1295.15640	-378.52501	-144.56201	1077.37143	-365.64727	-119.85644	1111.12767	-310.34419	-26.69463	1130.81271	-314.61890	108.93223	1115.68055	-350.26593	108.30776	1080.88907	-334.14297	-183.46901	1286.44942	-794.82428	-147.53823	1060.68115	-799.23324	-125.65907	1098.40616	-852.64484	-18.74611	1094.21589	-837.16431	96.47650	1079.54192	-789.33570	92.19189	1040.44927	-798.92050	-229.93663	847.12528	-485.24061	-225.33813	852.68699	-692.62234	-218.11991	867.34330	-507.57998	-214.37863	867.86856	-654.04085	
